<svg width="198" height="194" viewBox="0 0 198 194" fill="none" xmlns="http://www.w3.org/2000/svg">
<path fill-rule="evenodd" clip-rule="evenodd" d="M99.75 6.44995C100.75 6.44995 101.25 6.94955 101.25 7.44955C101.25 13.1162 102.417 17.8666 104.75 19.6999C107.083 21.5333 111.667 22.4499 118.5 22.4499H166.25C171.583 22.4499 175.5 21.7833 178 20.4499C180.5 19.2833 181.75 17.2833 181.75 14.4499C181.75 11.9499 180.5 7.78328 178 1.94995V1.69995C178 1.03328 178.417 0.533282 179.25 0.199949C180.083 -0.133384 180.583 -0.050051 180.75 0.449949L196.75 33.2C197.083 34.2 197.25 34.7833 197.25 34.95C197.25 36.7833 195.167 38.5333 191 40.2C187.332 41.6672 182.695 42.4887 177.089 42.6642C190.696 53.9541 197.5 66.2161 197.5 79.4499C197.5 88.2833 195 95.0333 190 99.6999C186.377 103.323 181.489 105.588 175.337 106.496C190.112 118.175 197.5 130.91 197.5 144.7C197.5 153.533 194.917 160.283 189.75 164.95C184.75 169.783 177.083 172.2 166.75 172.2L118.5 172.2C111.667 172.2 107.083 173.117 104.75 174.95C102.417 176.95 101.25 180.783 101.25 186.45C101.25 187.117 100.75 187.45 99.75 187.45H97.75C96.75 187.45 96.25 186.95 96.25 186.45C96.25 180.783 95.0833 176.033 92.75 174.199C90.4167 172.366 85.8333 171.449 79 171.449H31.25C25.9167 171.449 22 172.116 19.5 173.449C17 174.616 15.75 176.616 15.75 179.449C15.75 181.949 17 186.116 19.5 191.949V192.199C19.5 192.866 19.0833 193.366 18.25 193.699C17.4167 194.033 16.9167 193.949 16.75 193.449L0.749996 160.699C0.416662 159.699 0.249995 159.116 0.249995 158.949C0.249995 157.116 2.33333 155.366 6.5 153.699C10.1682 152.232 14.8053 151.411 20.4112 151.235C6.80375 139.945 0 127.683 0 114.45C0 105.616 2.5 98.8662 7.5 94.1996C11.1233 90.5762 16.0111 88.311 22.1633 87.4039C7.38778 75.7245 2.24938e-06 62.9897 2.85217e-06 49.1995C3.23829e-06 40.3662 2.58334 33.6162 7.75 28.9495C12.75 24.1162 20.4167 21.6995 30.75 21.6995L79 21.6995C85.8333 21.6995 90.4167 20.7829 92.75 18.9496C95.0833 16.9495 96.25 13.1162 96.25 7.44955C96.25 6.78288 96.75 6.44954 97.75 6.44954C98.75 6.44954 99.75 6.44995 99.75 6.44995ZM28.75 86.9496C28.0036 86.9496 27.2716 86.965 26.554 86.9959C23.4317 84.2145 20.8304 81.0324 18.75 77.4496C15.75 72.1162 14.25 66.7829 14.25 61.4495C14.25 54.7829 16.5 49.8662 21 46.6995C25.5 43.3662 32.4167 41.6995 41.75 41.6995H79C85.6667 41.6995 90.25 42.6995 92.75 44.6995C95.0833 46.6995 96.25 51.45 96.25 56.95C96.25 57.4499 96.6732 57.7 97.6732 57.7H99.75C100.75 57.7 101.25 57.45 101.25 56.95C101.25 51.2833 102.417 47.45 104.75 45.45C107.083 43.6166 111.667 42.7 118.5 42.7H172.076C174.701 45.2252 176.926 48.0586 178.75 51.2C181.75 56.5333 183.25 61.8666 183.25 67.1999C183.25 73.8666 181 78.7833 176.5 81.9499C172 85.2833 165.083 86.9499 155.75 86.9499H118.5C111.667 86.9499 107.083 85.9499 104.75 83.9499C102.417 82.1166 101.25 78.1162 101.25 72.4496C101.25 71.9496 100.502 71.6996 99.502 71.6996H98.25C97.25 71.6996 96.25 71.9496 96.25 72.4496C96.25 78.1162 95.0833 81.9496 92.75 83.9496C90.4167 85.9496 85.8333 86.9496 79 86.9496H28.75ZM18.75 142.699C20.574 145.841 22.7986 148.674 25.4236 151.199H79C85.8333 151.199 90.4167 150.283 92.75 148.449C95.0833 146.449 96.25 142.616 96.25 136.949C96.25 136.449 96.75 136.199 97.75 136.199H99.5757C100.576 136.199 101.25 136.45 101.25 136.95C101.25 142.45 102.417 147.2 104.75 149.2C107.25 151.2 111.833 152.2 118.5 152.2H155.75C165.083 152.2 172 150.533 176.5 147.2C181 144.033 183.25 139.117 183.25 132.45C183.25 127.117 181.75 121.783 178.75 116.45C176.67 112.867 174.068 109.685 170.946 106.904C170.228 106.934 169.496 106.95 168.75 106.95H118.5C111.667 106.95 107.083 107.95 104.75 109.95C102.417 111.95 101.25 115.783 101.25 121.45C101.25 121.95 100.75 122.2 99.75 122.2H98.75H97.75C96.75 122.2 96.25 121.7 96.25 121.2C96.25 115.533 95.0833 111.783 92.75 109.95C90.4167 107.95 85.8333 106.95 79 106.95H41.75C32.4167 106.95 25.5 108.616 21 111.95C16.5 115.116 14.25 120.033 14.25 126.7C14.25 132.033 15.75 137.366 18.75 142.699Z" fill="white"/>
</svg>
