<svg xmlns="http://www.w3.org/2000/svg" version="1.1" xmlns:xlink="http://www.w3.org/1999/xlink" width="260" height="260"><svg width="260" height="260" viewBox="0 0 260 260" fill="none" xmlns="http://www.w3.org/2000/svg">
<rect width="260" height="260" rx="80" fill="black"></rect>
<path d="M59.25 124.75C57.1909 123.334 55.2453 121.902 53.4133 120.454C47.2611 121.361 42.3733 123.627 38.75 127.25C33.75 131.917 31.25 138.667 31.25 147.5C31.25 160.734 38.0537 172.996 51.6612 184.286C52.4229 184.262 53.2025 184.25 54 184.25H56.6736C54.0486 181.725 51.824 178.891 50 175.75C47 170.416 45.5 165.083 45.5 159.75C45.5 153.083 47.75 148.167 52.25 145C56.75 141.667 63.6667 140 73 140H110.25C117.083 140 121.667 141 124 143C126.333 144.833 127.5 148.583 127.5 154.25C127.5 154.75 128 155.25 129 155.25C129.269 155.25 130 155.25 130 155.25C130 155.25 130.363 155.25 131 155.25C132 155.25 132.5 155 132.5 154.5C132.5 148.834 133.667 145 136 143C138.333 141 142.917 140 149.75 140H200C200.746 140 201.478 139.985 202.196 139.954C200.816 138.724 199.334 137.573 197.75 136.5L200.75 135.25C202.809 136.666 204.755 138.098 206.587 139.546C212.739 138.639 217.627 136.374 221.25 132.75C226.25 128.084 228.75 121.334 228.75 112.5C228.75 99.2663 221.946 87.0044 208.339 75.7145C207.577 75.7383 206.797 75.7502 206 75.7502H203.326C205.951 78.2755 208.176 81.1088 210 84.2502C213 89.5836 214.5 94.9169 214.5 100.25C214.5 106.917 212.25 111.834 207.75 115C203.25 118.334 196.333 120 187 120H149.75C142.917 120 138.333 119 136 117C133.667 115.167 132.5 111.167 132.5 105.5C132.5 105 131.752 104.75 130.752 104.75H129.5C128.5 104.75 127.5 105 127.5 105.5C127.5 111.167 126.333 115 124 117C121.667 119 117.083 120 110.25 120H60C59.2536 120 58.5216 120.015 57.804 120.046C59.1842 121.276 60.6662 122.427 62.25 123.5L59.25 124.75Z" fill="white"></path>
<path fill-rule="evenodd" clip-rule="evenodd" d="M131 39.5002C130.816 39.5002 131.15 39.4834 131 39.5002C132 39.5002 132.5 39.9998 132.5 40.4998C132.5 46.1665 133.667 50.9169 136 52.7502C138.333 54.5836 142.917 55.5002 149.75 55.5002H197.5C202.833 55.5002 206.75 54.8336 209.25 53.5002C211.75 52.3336 213 50.3336 213 47.5002C213 45.0002 211.75 40.8336 209.25 35.0002V34.7502C209.25 34.0836 209.667 33.5836 210.5 33.2502C211.333 32.9169 211.833 33.0002 212 33.5002L228 66.2502C228.333 67.2502 228.5 67.8336 228.5 68.0002C228.5 69.8336 226.417 71.5836 222.25 73.2502C218.582 74.7175 213.945 75.539 208.339 75.7145C207.577 75.7383 206.797 75.7502 206 75.7502H203.326H149.75C142.917 75.7502 138.333 76.6669 136 78.5002C133.667 80.5002 132.5 84.3336 132.5 90.0002C132.5 90.5002 132 90.7502 131 90.7502C130 90.7502 128.923 90.7502 128.923 90.7502C127.923 90.7502 127.5 90.5002 127.5 90.0002C127.5 84.5002 126.333 79.7498 124 77.7498C121.5 75.7498 116.917 74.7498 110.25 74.7498H73C63.6667 74.7498 56.75 76.4165 52.25 79.7498C47.75 82.9165 45.5 87.8332 45.5 94.4998C45.5 99.8332 47 105.167 50 110.5C52.0804 114.083 54.6817 117.265 57.804 120.046C59.1842 121.276 60.6662 122.427 62.25 123.5L59.25 124.75C57.1909 123.334 55.2453 121.902 53.4133 120.454C38.6378 108.775 31.25 96.04 31.25 82.2498C31.25 73.4165 33.8333 66.6665 39 61.9998C44 57.1665 51.6667 54.7498 62 54.7498L110.25 54.7498C117.083 54.7498 121.667 53.8332 124 51.9998C126.333 49.9998 127.5 46.1665 127.5 40.4998C127.5 39.8332 128 39.4998 129 39.4998C130 39.4998 131 39.5002 131 39.5002Z" fill="white"></path>
<path fill-rule="evenodd" clip-rule="evenodd" d="M131 220.5H129C128 220.5 127.5 220 127.5 219.5C127.5 213.834 126.333 209.083 124 207.25C121.667 205.416 117.083 204.5 110.25 204.5H62.5C57.1667 204.5 53.25 205.166 50.75 206.5C48.25 207.666 47 209.666 47 212.5C47 215 48.25 219.166 50.75 225V225.25C50.75 225.916 50.3333 226.416 49.5 226.75C48.6667 227.083 48.1667 227 48 226.5L32 193.75C31.6667 192.75 31.5 192.166 31.5 192C31.5 190.166 33.5833 188.416 37.75 186.75C41.4182 185.282 46.0553 184.461 51.6612 184.286C52.4229 184.262 53.2025 184.25 54 184.25H56.6736H110.25C117.083 184.25 121.667 183.333 124 181.5C126.333 179.5 127.5 175.666 127.5 170C127.5 169.5 128 169.25 129 169.25H130.826C131.826 169.25 132.5 169.5 132.5 170C132.5 175.5 133.667 180.25 136 182.25C138.5 184.25 143.083 185.25 149.75 185.25H187C196.333 185.25 203.25 183.584 207.75 180.25C212.25 177.084 214.5 172.167 214.5 165.5C214.5 160.167 213 154.834 210 149.5C207.92 145.917 205.318 142.735 202.196 139.954C200.816 138.724 199.334 137.573 197.75 136.5L200.75 135.25C202.809 136.666 204.755 138.098 206.587 139.546C221.362 151.225 228.75 163.96 228.75 177.75C228.75 186.584 226.167 193.334 221 198C216 202.834 208.333 205.25 198 205.25L149.75 205.25C142.917 205.25 138.333 206.167 136 208C133.667 210 132.5 213.834 132.5 219.5C132.5 220.167 132 220.5 131 220.5Z" fill="white"></path>
</svg><style>@media (prefers-color-scheme: light) { :root { filter: none; } }
@media (prefers-color-scheme: dark) { :root { filter: invert(100%); } }
</style></svg>